<svg xmlns="http://www.w3.org/2000/svg" width="208.685" height="180.186" viewBox="0 0 208.685 180.186">
  <g id="showpass" transform="translate(0 -32.053)">
    <g id="Grupo_109" data-name="Grupo 109" transform="translate(0 32.053)">
      <g id="Grupo_108" data-name="Grupo 108" transform="translate(0 0)">
        <path id="Caminho_2475" data-name="Caminho 2475" d="M231.147,160.2l29.873,29.873.142-1.565a28.473,28.473,0,0,0-28.45-28.45Z" transform="translate(-128.393 -103.152)" fill="#ff2d66"/>
        <path id="Caminho_2476" data-name="Caminho 2476" d="M187.446,87.763a47.435,47.435,0,0,1,47.418,47.418,46.683,46.683,0,0,1-3.367,17.307l27.739,27.739a112.627,112.627,0,0,0,32.576-45.046A112.224,112.224,0,0,0,187.447,64.054a110.911,110.911,0,0,0-37.792,6.638l20.484,20.437A47.655,47.655,0,0,1,187.446,87.763Z" transform="translate(-83.128 -49.828)" fill="#ff2d66"/>
        <path id="Caminho_2477" data-name="Caminho 2477" d="M9.483,44.144,31.106,65.767l4.315,4.315A112.325,112.325,0,0,0,0,117.4a112.16,112.16,0,0,0,104.319,71.126,111.192,111.192,0,0,0,41.585-8.014l4.031,4.031,27.645,27.692L189.67,200.2,21.575,32.053Zm52.444,52.4,14.652,14.652a30.051,30.051,0,0,0-.711,6.212,28.473,28.473,0,0,0,28.45,28.45,29.234,29.234,0,0,0,6.164-.711L125.135,159.8a46.65,46.65,0,0,1-20.816,5.026A47.107,47.107,0,0,1,61.927,96.541Z" transform="translate(0 -32.053)" fill="#ff2d66"/>
      </g>
    </g>
  </g>
</svg>
