<svg width="57" height="60" viewBox="0 0 57 60" fill="none" xmlns="http://www.w3.org/2000/svg">
<path d="M16.1949 23.5C17.5757 23.5 18.6949 22.3807 18.6949 21C18.6949 19.6193 17.5757 18.5 16.1949 18.5C14.8142 18.5 13.6949 19.6193 13.6949 21C13.6949 22.3807 14.8142 23.5 16.1949 23.5Z" fill="white"/>
<path d="M20.6949 19.5C22.0757 19.5 23.1949 18.3807 23.1949 17C23.1949 15.6193 22.0757 14.5 20.6949 14.5C19.3142 14.5 18.1949 15.6193 18.1949 17C18.1949 18.3807 19.3142 19.5 20.6949 19.5Z" fill="white"/>
<path d="M26.6949 19.5C28.0757 19.5 29.1949 18.3807 29.1949 17C29.1949 15.6193 28.0757 14.5 26.6949 14.5C25.3142 14.5 24.1949 15.6193 24.1949 17C24.1949 18.3807 25.3142 19.5 26.6949 19.5Z" fill="white"/>
<path d="M31.1949 23.5C32.5757 23.5 33.6949 22.3807 33.6949 21C33.6949 19.6193 32.5757 18.5 31.1949 18.5C29.8142 18.5 28.6949 19.6193 28.6949 21C28.6949 22.3807 29.8142 23.5 31.1949 23.5Z" fill="white"/>
<path d="M29.035 26.3601C28.165 25.3401 27.435 24.4701 26.555 23.4501C26.0973 22.8644 25.4938 22.4092 24.805 22.1301C24.6977 22.0908 24.5873 22.0607 24.475 22.0401C24.2164 22.0066 23.9556 21.9932 23.695 22.0001C23.4306 21.9918 23.1661 22.0086 22.905 22.0501C22.7926 22.0707 22.6822 22.1008 22.575 22.1401C21.8876 22.4218 21.2847 22.8766 20.825 23.4601C19.955 24.4801 19.225 25.3501 18.345 26.3701C17.035 27.6801 15.425 29.1301 15.725 31.1601C15.861 31.7244 16.1507 32.2399 16.562 32.6494C16.9733 33.059 17.4901 33.3465 18.055 33.4801C18.785 33.6301 21.115 33.0401 23.595 33.0401H23.775C26.255 33.0401 28.585 33.6201 29.315 33.4801C29.8791 33.3449 30.395 33.0569 30.8061 32.6476C31.2171 32.2383 31.5074 31.7236 31.645 31.1601C31.955 29.1201 30.345 27.6701 29.035 26.3601V26.3601Z" fill="white"/>
<path d="M54.815 54.346L40.615 39.287C43.8336 34.986 45.5623 29.7529 45.539 24.381C45.539 11.192 35.457 0.5 23.019 0.5C10.581 0.5 0.5 11.192 0.5 24.381C0.5 37.57 10.582 48.262 23.019 48.262C28.1774 48.252 33.1626 46.3997 37.076 43.039L51.276 58.1C51.5019 58.3438 51.7755 58.5386 52.0798 58.6723C52.3841 58.806 52.7126 58.8756 53.045 58.877C53.5507 58.8693 54.0422 58.7087 54.4548 58.4163C54.8675 58.1239 55.182 57.7135 55.357 57.239C55.5474 56.7545 55.5975 56.2263 55.5017 55.7146C55.4058 55.203 55.1679 54.7287 54.815 54.346ZM23.015 42.955C13.346 42.955 5.5 34.639 5.5 24.381C5.5 14.123 13.346 5.807 23.019 5.807C32.692 5.807 40.534 14.123 40.534 24.381C40.534 34.639 32.693 42.955 23.019 42.955H23.015Z" fill="white" stroke="white"/>
</svg>
