<svg xmlns="http://www.w3.org/2000/svg" width="56.088" height="59.376" viewBox="0 0 56.088 59.376">
  <g id="Grupo_7993" data-name="Grupo 7993" transform="translate(-1592.305 -1317.5)">
    <g id="pets" transform="translate(1604 1329)">
      <path id="Caminho_2472" data-name="Caminho 2472" d="M0,0H24V24H0Z" fill="none"/>
      <circle id="Elipse_58" data-name="Elipse 58" cx="2.5" cy="2.5" r="2.5" transform="translate(2 7)" fill="#ff779c"/>
      <circle id="Elipse_59" data-name="Elipse 59" cx="2.5" cy="2.5" r="2.5" transform="translate(6.5 3)" fill="#ff779c"/>
      <circle id="Elipse_60" data-name="Elipse 60" cx="2.5" cy="2.5" r="2.5" transform="translate(12.5 3)" fill="#ff779c"/>
      <circle id="Elipse_61" data-name="Elipse 61" cx="2.5" cy="2.5" r="2.5" transform="translate(17 7)" fill="#ff779c"/>
      <path id="Caminho_2473" data-name="Caminho 2473" d="M17.34,14.86c-.87-1.02-1.6-1.89-2.48-2.91a4.243,4.243,0,0,0-1.75-1.32,2.025,2.025,0,0,0-.33-.09A5.033,5.033,0,0,0,12,10.5a4.2,4.2,0,0,0-.79.05,2.025,2.025,0,0,0-.33.09,4.308,4.308,0,0,0-1.75,1.32c-.87,1.02-1.6,1.89-2.48,2.91-1.31,1.31-2.92,2.76-2.62,4.79a3.14,3.14,0,0,0,2.33,2.32c.73.15,3.06-.44,5.54-.44h.18c2.48,0,4.81.58,5.54.44a3.155,3.155,0,0,0,2.33-2.32c.31-2.04-1.3-3.49-2.61-4.8Z" fill="#ff779c"/>
    </g>
    <path id="search" d="M58.315,57.846l-14.2-15.059a24.7,24.7,0,0,0,4.924-14.906C49.039,14.692,38.957,4,26.519,4S4,14.692,4,27.881,14.082,51.762,26.519,51.762a21.641,21.641,0,0,0,14.057-5.223L54.776,61.6a2.425,2.425,0,0,0,1.769.777,2.505,2.505,0,0,0,2.312-1.638A2.772,2.772,0,0,0,58.315,57.846Zm-31.8-11.391C16.846,46.455,9,38.139,9,27.881S16.846,9.307,26.519,9.307s17.515,8.316,17.515,18.574S36.193,46.455,26.519,46.455Z" transform="translate(1588.805 1314)" fill="#ff779c" stroke="#ff779c" stroke-width="1"/>
  </g>
</svg>
