<svg id="busca_w" xmlns="http://www.w3.org/2000/svg" width="56.052" height="59.377" viewBox="0 0 56.052 59.377">
  <path id="Caminho_1" data-name="Caminho 1" d="M16.195,23.5a2.5,2.5,0,1,0-2.5-2.5A2.5,2.5,0,0,0,16.195,23.5Z"/>
  <path id="Caminho_2" data-name="Caminho 2" d="M20.695,19.5a2.5,2.5,0,1,0-2.5-2.5A2.5,2.5,0,0,0,20.695,19.5Z"/>
  <path id="Caminho_3" data-name="Caminho 3" d="M26.695,19.5a2.5,2.5,0,1,0-2.5-2.5A2.5,2.5,0,0,0,26.695,19.5Z"/>
  <path id="Caminho_4" data-name="Caminho 4" d="M31.195,23.5a2.5,2.5,0,1,0-2.5-2.5A2.5,2.5,0,0,0,31.195,23.5Z"/>
  <path id="Caminho_5" data-name="Caminho 5" d="M29.035,26.36c-.87-1.02-1.6-1.89-2.48-2.91a4.244,4.244,0,0,0-1.75-1.32,2.018,2.018,0,0,0-.33-.09,5.034,5.034,0,0,0-.78-.04,4.194,4.194,0,0,0-.79.05,2.013,2.013,0,0,0-.33.09,4.307,4.307,0,0,0-1.75,1.32c-.87,1.02-1.6,1.89-2.48,2.91-1.31,1.31-2.92,2.76-2.62,4.79a3.14,3.14,0,0,0,2.33,2.32c.73.15,3.06-.44,5.54-.44h.18c2.48,0,4.81.58,5.54.44a3.155,3.155,0,0,0,2.33-2.32c.31-2.04-1.3-3.49-2.61-4.8Z"/>
  <path id="Caminho_6" data-name="Caminho 6" d="M54.815,54.346l-14.2-15.059a24.7,24.7,0,0,0,4.924-14.906C45.539,11.192,35.457.5,23.019.5S.5,11.192.5,24.381,10.582,48.262,23.019,48.262a21.641,21.641,0,0,0,14.057-5.223L51.276,58.1a2.425,2.425,0,0,0,1.769.777,2.505,2.505,0,0,0,2.312-1.638,2.772,2.772,0,0,0-.542-2.893Zm-31.8-11.391C13.346,42.955,5.5,34.639,5.5,24.381S13.346,5.807,23.019,5.807s17.515,8.316,17.515,18.574S32.693,42.955,23.019,42.955Z" stroke="#fff" stroke-width="1"/>
</svg>
