<svg xmlns="http://www.w3.org/2000/svg" width="448.011" height="448" viewBox="0 0 448.011 448">
  <g id="chat_w" transform="translate(-31.99 -32)">
    <path id="Caminho_7" data-name="Caminho 7" d="M431,320.6c-1-3.6,1.2-8.6,3.3-12.2a33.8,33.8,0,0,1,2.1-3.1A162,162,0,0,0,464,215c.3-92.2-77.5-167-173.7-167C206.4,48,136.4,105.1,120,180.9a160.719,160.719,0,0,0-3.7,34.2c0,92.3,74.8,169.1,171,169.1,15.3,0,35.9-4.6,47.2-7.7s22.5-7.2,25.4-8.3a26.429,26.429,0,0,1,9.3-1.7,26.012,26.012,0,0,1,10.1,2L436,388.6a13.528,13.528,0,0,0,3.9,1,8,8,0,0,0,8-8,12.851,12.851,0,0,0-.5-2.7Z" fill="none" stroke="#0d0d0d" stroke-linecap="round" stroke-miterlimit="10" stroke-width="32"/>
    <path id="Caminho_8" data-name="Caminho 8" d="M66.46,232a146.23,146.23,0,0,0,6.39,152.67c2.31,3.49,3.61,6.19,3.21,8s-11.93,61.87-11.93,61.87a8,8,0,0,0,2.71,7.68A8.171,8.171,0,0,0,72,464a7.264,7.264,0,0,0,2.91-.6l56.21-22a15.7,15.7,0,0,1,12,.2c18.94,7.38,39.88,12,60.83,12A159.208,159.208,0,0,0,284,432.11" fill="none" stroke="#0d0d0d" stroke-linecap="round" stroke-miterlimit="10" stroke-width="32"/>
    <path id="Caminho_9" data-name="Caminho 9" d="M214.133,214.452A25.125,25.125,0,1,0,189,189.327,25.128,25.128,0,0,0,214.133,214.452Z" fill="#090909"/>
    <path id="Caminho_10" data-name="Caminho 10" d="M259.371,174.251a25.126,25.126,0,1,0-25.132-25.125A25.129,25.129,0,0,0,259.371,174.251Z" fill="#090909"/>
    <path id="Caminho_11" data-name="Caminho 11" d="M319.689,174.251a25.126,25.126,0,1,0-25.132-25.125A25.129,25.129,0,0,0,319.689,174.251Z" fill="#090909"/>
    <path id="Caminho_12" data-name="Caminho 12" d="M364.928,214.452A25.125,25.125,0,1,0,339.8,189.327,25.129,25.129,0,0,0,364.928,214.452Z" fill="#090909"/>
    <path id="Caminho_13" data-name="Caminho 13" d="M343.214,243.2c-8.747-10.251-16.085-19-24.932-29.246a42.658,42.658,0,0,0-17.593-13.266,20.265,20.265,0,0,0-3.317-.9,50.637,50.637,0,0,0-7.842-.4,42.206,42.206,0,0,0-7.941.5,20.247,20.247,0,0,0-3.318.9,43.309,43.309,0,0,0-17.593,13.266c-8.746,10.252-16.085,19-24.931,29.247-13.17,13.165-29.355,27.738-26.339,48.14a31.562,31.562,0,0,0,23.423,23.317c7.339,1.507,30.763-4.422,55.694-4.422h1.81c24.931,0,48.355,5.829,55.693,4.422a31.717,31.717,0,0,0,23.424-23.317C372.568,270.936,356.383,256.363,343.214,243.2Z" fill="#090909"/>
  </g>
</svg>
