<svg width="737" height="737" viewBox="0 0 737 737" fill="none" xmlns="http://www.w3.org/2000/svg">
<path d="M78.9643 0H658.036C701.647 0 737 35.3535 737 78.9642V500.107C737 543.718 701.647 579.071 658.036 579.071H564.594L578.913 707.783C580.509 722.233 570.089 735.239 555.64 736.835C548.178 737.658 540.72 735.257 535.14 730.236L367.157 579.071H78.9643C35.3535 579.071 2.43798e-05 543.718 2.43798e-05 500.107V78.9642C2.43798e-05 35.3535 35.3535 0 78.9643 0Z" fill="#FF2D66"/>
<path d="M254.258 86.9792C179.167 87.3448 118.384 148.127 118.018 223.219C118.018 360.793 368.457 497.032 368.457 497.032C368.457 497.032 618.897 358.79 618.897 223.219C618.897 147.976 557.901 86.9792 482.657 86.9792C436.598 86.62 393.538 109.786 368.457 148.42C343.204 109.974 300.255 86.868 254.258 86.9792Z" fill="white"/>
</svg>
