<svg width="512" height="512" viewBox="0 0 512 512" fill="none" xmlns="http://www.w3.org/2000/svg">
<path d="M431 320.6C430 317 432.2 312 434.3 308.4C434.942 307.329 435.643 306.294 436.4 305.3C454.363 278.608 463.971 247.173 464 215C464.3 122.8 386.5 48 290.3 48C206.4 48 136.4 105.1 120 180.9C117.547 192.135 116.306 203.6 116.3 215.1C116.3 307.4 191.1 384.2 287.3 384.2C302.6 384.2 323.2 379.6 334.5 376.5C345.8 373.4 357 369.3 359.9 368.2C362.873 367.079 366.023 366.503 369.2 366.5C372.666 366.487 376.1 367.167 379.3 368.5L436 388.6C437.243 389.126 438.557 389.463 439.9 389.6C442.022 389.6 444.057 388.757 445.557 387.257C447.057 385.757 447.9 383.722 447.9 381.6C447.83 380.685 447.663 379.78 447.4 378.9L431 320.6Z" stroke="white" stroke-width="32" stroke-miterlimit="10" stroke-linecap="round"/>
<path d="M66.4601 232C53.3444 255.562 46.9997 282.293 48.1275 309.236C49.2552 336.179 57.8113 362.286 72.8501 384.67C75.1601 388.16 76.4601 390.86 76.0601 392.67C75.6601 394.48 64.1301 454.54 64.1301 454.54C63.8528 455.946 63.958 457.4 64.4347 458.751C64.9114 460.102 65.7421 461.3 66.8401 462.22C68.3052 463.387 70.1269 464.016 72.0001 464C73.0011 464.003 73.9919 463.798 74.9101 463.4L131.12 441.4C134.989 439.875 139.304 439.947 143.12 441.6C162.06 448.98 183 453.6 203.95 453.6C232.063 453.63 259.682 446.215 284 432.11" stroke="white" stroke-width="32" stroke-miterlimit="10" stroke-linecap="round"/>
<path d="M214.133 214.452C228.014 214.452 239.265 203.203 239.265 189.327C239.265 175.45 228.014 164.201 214.133 164.201C200.252 164.201 189 175.45 189 189.327C189 203.203 200.252 214.452 214.133 214.452Z" fill="white"/>
<path d="M259.371 174.251C273.252 174.251 284.504 163.002 284.504 149.126C284.504 135.249 273.252 124 259.371 124C245.491 124 234.239 135.249 234.239 149.126C234.239 163.002 245.491 174.251 259.371 174.251Z" fill="white"/>
<path d="M319.689 174.251C333.57 174.251 344.822 163.002 344.822 149.126C344.822 135.249 333.57 124 319.689 124C305.809 124 294.557 135.249 294.557 149.126C294.557 163.002 305.809 174.251 319.689 174.251Z" fill="white"/>
<path d="M364.928 214.452C378.809 214.452 390.061 203.203 390.061 189.327C390.061 175.45 378.809 164.201 364.928 164.201C351.048 164.201 339.795 175.45 339.795 189.327C339.795 203.203 351.048 214.452 364.928 214.452Z" fill="white"/>
<path d="M343.214 243.197C334.467 232.946 327.129 224.202 318.282 213.951C313.681 208.065 307.614 203.49 300.689 200.685C299.611 200.29 298.501 199.987 297.372 199.78C294.772 199.443 292.15 199.309 289.53 199.378C286.872 199.295 284.213 199.464 281.589 199.881C280.459 200.088 279.349 200.39 278.271 200.785C271.361 203.616 265.3 208.187 260.678 214.051C251.932 224.303 244.593 233.046 235.747 243.298C222.577 256.463 206.392 271.036 209.408 291.438C210.775 297.11 213.687 302.29 217.822 306.406C221.957 310.523 227.152 313.412 232.831 314.755C240.17 316.262 263.594 310.333 288.525 310.333H290.335C315.266 310.333 338.69 316.162 346.028 314.755C351.699 313.396 356.886 310.502 361.018 306.388C365.15 302.274 368.069 297.102 369.452 291.438C372.568 270.936 356.383 256.363 343.214 243.197Z" fill="white"/>
</svg>
