<svg width="805" height="805" viewBox="0 0 805 805" fill="none" xmlns="http://www.w3.org/2000/svg">
<path d="M718.75 0H86.2499C38.6154 0 0 38.6154 0 86.2499V546.25C0 593.885 38.6154 632.5 86.2499 632.5H188.313L172.673 773.087C170.93 788.87 182.311 803.076 198.094 804.82C206.243 805.719 214.39 803.096 220.485 797.611L403.966 632.5H718.75C766.385 632.5 805 593.885 805 546.25V86.2499C805 38.6154 766.385 0 718.75 0Z" fill="#FF2D66"/>
<path d="M527.283 95.0045C609.301 95.4038 675.693 161.794 676.093 243.814C676.093 394.082 402.547 542.891 402.547 542.891C402.547 542.891 129 391.894 129 243.814C129 161.63 195.624 95.0045 277.81 95.0045C328.118 94.6122 375.152 119.916 402.547 162.114C430.13 120.121 477.041 94.883 527.283 95.0045Z" fill="white"/>
</svg>
