<svg width="771" height="713" viewBox="0 0 771 713" fill="none" xmlns="http://www.w3.org/2000/svg">
<path d="M671.135 59.2071C635.986 21.0276 587.757 0 535.321 0C496.127 0 460.232 12.41 428.632 36.8825C412.687 49.2355 398.238 64.3486 385.5 81.9883C372.767 64.3538 358.313 49.2355 342.363 36.8825C310.768 12.41 274.873 0 235.679 0C183.243 0 135.009 21.0276 99.8602 59.2071C65.1311 96.9405 46 148.49 46 204.366C46 261.877 67.4001 314.521 113.345 370.044C154.446 419.711 213.517 470.129 281.924 528.511C305.282 548.449 331.759 571.049 359.251 595.122C366.514 601.493 375.833 605 385.5 605C395.161 605 404.486 601.493 411.739 595.132C439.231 571.054 465.723 548.444 489.092 528.496C557.488 470.124 616.56 419.711 657.661 370.039C703.605 314.521 725 261.877 725 204.361C725 148.49 705.869 96.9405 671.135 59.2071Z" fill="#CF1716"/>
<path d="M331.289 286.364L331.34 286.633L331.594 286.735L371.698 302.915L371.885 302.451L371.698 302.915C376.052 304.671 378.157 309.624 376.4 313.977L376.399 313.98C376.379 314.029 376.29 314.221 376.193 314.426C376.112 314.599 376.042 314.746 376.022 314.787L376.017 314.798L376.014 314.804C362.874 340.76 338.487 355.377 312.575 355.377C309.938 355.377 306.952 355.223 304.297 354.918L303.74 354.854V355.414V506.639V506.779L303.812 506.898C321.995 536.965 355.815 590.664 356.163 591.215C357.813 593.834 357.909 597.143 356.413 599.853L356.851 600.094L356.413 599.853C354.918 602.562 352.067 604.245 348.972 604.245H316.217C313.344 604.245 310.666 602.795 309.096 600.389L255.154 517.676L254.981 517.412L254.669 517.454L252.317 517.768L251.837 517.832L251.885 518.314C252.781 527.18 252.101 540.752 244.179 556.197L243.888 556.764L244.508 556.912C252.985 558.927 261.992 562.671 268.872 568.892C275.738 575.1 280.501 583.785 280.501 595.746C280.501 600.441 276.696 604.246 272.001 604.246V604.746C272.001 604.246 272 604.246 271.999 604.246H271.993H271.983H271.97H271.952H271.931H271.906H271.877H271.844H271.808H271.767H271.723H271.676H271.624H271.569H271.51H271.448H271.382H271.312H271.238H271.161H271.081H270.997H270.909H270.817H270.723H270.624H270.522H270.417H270.308H270.196H270.08H269.961H269.839H269.713H269.583H269.451H269.315H269.175H269.033H268.887H268.737H268.585H268.429H268.27H268.108H267.942H267.773H267.602H267.426H267.248H267.067H266.883H266.695H266.504H266.311H266.114H265.914H265.711H265.505H265.296H265.085H264.87H264.652H264.431H264.208H263.981H263.752H263.519H263.284H263.046H262.805H262.562H262.315H262.066H261.814H261.559H261.302H261.042H260.779H260.513H260.245H259.974H259.7H259.424H259.145H258.863H258.579H258.293H258.004H257.712H257.418H257.121H256.822H256.52H256.216H255.909H255.6H255.288H254.974H254.658H254.339H254.018H253.695H253.369H253.041H252.711H252.378H252.044H251.706H251.367H251.026H250.682H250.336H249.988H249.637H249.285H248.93H248.574H248.215H247.854H247.491H247.126H246.759H246.39H246.019H245.646H245.271H244.894H244.515H244.134H243.751H243.367H242.98H242.592H242.201H241.809H241.415H241.019H240.622H240.223H239.821H239.419H239.014H238.608H238.2H237.79H237.379H236.966H236.551H236.135H235.717H235.297H234.876H234.454H234.029H233.604H233.176H232.748H232.317H231.886H231.453H231.018H230.582H230.144H229.706H229.265H228.824H228.381H227.937H227.491H227.044H226.596H226.146H225.696H225.244H224.79H224.336H223.88H223.424H222.966H222.506H222.046H221.585H221.122H220.659H220.194H219.728H219.261H218.794H218.325H217.855H217.384H216.912H216.44H215.966H215.491H215.016H214.539H214.062H213.584H213.105H212.625H212.145H211.663H211.181H210.698H210.214H209.73H209.244H208.758H208.272H207.784H207.296H206.808H206.318H205.829H205.338H204.847H204.355H203.863H203.37H202.877H202.383H201.889H201.394H200.899H200.403H199.907H199.411H198.914H198.416H197.918H197.42H196.922H196.423H195.924H195.425H194.925H194.425H193.925H193.424H192.924H192.423H191.922H191.421H190.919H190.418H189.916H189.414H188.912H188.41H187.908H187.406H186.904H186.402H185.9H185.398H184.895H184.393H183.891H183.389H182.887H182.386H181.884H181.382H180.881H180.38H179.879H179.378H178.877H178.376H177.876H177.376H176.876H176.377H175.878H175.379H174.88H174.382H173.884H173.387H172.89H172.393H171.897H171.401H170.906H170.411H169.916H169.422H168.929H168.436H167.944H167.452H166.961H166.47H165.98H165.491H165.002H164.514H164.026H163.539H163.053H162.568H162.083H161.599H161.116H160.633H160.152H159.671H159.191H158.712H158.233H157.756H157.279H156.803H156.328H155.855H155.382H154.91H154.438H153.968H153.499H153.031H152.564H152.098H151.633H151.169H150.706H150.245H149.784H149.325H148.867H148.409H147.953H147.499H147.045H146.593H146.142H145.692H145.243H144.796H144.35H143.906H143.462H143.02H142.58H142.141H141.703H141.266H140.831H140.398H139.966H139.535H139.106H138.678H138.252H137.828H137.404H136.983H136.563H136.145H135.728H135.313H134.899H134.488H134.078H133.669H133.262H132.857H132.454H132.052H131.653H131.255H130.858H130.464H130.071H129.681H129.292H128.905H128.519H128.136H127.755H127.375H126.998H126.622H126.249H125.877H125.507H125.14H124.774H124.411H124.049H123.69H123.333H122.978H122.625H122.274H121.925H121.579H121.234H120.892H120.552H120.214H119.879H119.546H119.215H118.886H118.56H118.236H117.914H117.595H117.278H116.964H116.651H116.342H116.034H115.73H115.427H115.127H114.83H114.535H114.242H113.953H113.665H113.381H113.098H112.819H112.542H112.268H111.996H111.727H111.461H111.197H110.936H110.678H110.422H110.17H109.92H109.672H109.428H109.186H108.948H108.712H108.479H108.248H108.021H107.797H107.575H107.357H107.141H106.929H106.719H106.512H106.309H106.108H105.91H105.716H105.524H105.336H105.151H104.969H104.79H104.614H104.441H104.271H104.105H103.942H103.782H103.625H103.472H103.322H103.175H103.031H102.891H102.754H102.621H102.49H102.364H102.24H102.12H102.004H101.89H101.781H101.674H101.572H101.472H101.377H101.284H101.196H101.11H101.029H100.951H100.877H100.806H100.739H100.675H100.615H100.559H100.507H100.458H100.413H100.372H100.335H100.301H100.271H100.245H100.222H100.204H100.189H100.179H100.172C58.1559 604.246 19.5634 580.026 1.33667 541.973L0.885773 542.189L1.33664 541.973C-0.691983 537.74 1.09572 532.664 5.32962 530.635C9.56377 528.609 14.6401 530.396 16.6678 534.629C32.3897 567.451 66.0578 588.106 102.39 587.22L102.392 587.22C102.459 587.218 102.526 587.217 102.594 587.217H110.233H111.541L110.566 586.345C100.925 577.717 91.4849 564.548 86.509 544.532C77.9863 510.25 84.0546 473.883 103.614 442.129C124.973 407.454 159.749 381.968 199.576 371.626L199.831 371.56L199.921 371.313L255.457 218.103C256.713 214.638 260.06 212.39 263.744 212.504C267.427 212.633 270.609 215.121 271.621 218.664L278.058 241.195L278.305 242.06L278.909 241.393L289.401 229.821L289.031 229.485L289.401 229.821C291.671 227.317 295.208 226.397 298.412 227.475C301.615 228.554 303.874 231.428 304.167 234.795L306.336 259.787L306.366 260.141L306.711 260.228C319.183 263.397 328.877 273.611 331.289 286.364Z" fill="#FE6C53" stroke="#FF9D8C"/>
<path d="M439.231 286.364L439.18 286.633L438.926 286.735L398.822 302.915L398.635 302.451L398.822 302.915C394.469 304.671 392.363 309.624 394.12 313.977L394.121 313.98C394.141 314.029 394.23 314.221 394.327 314.426C394.408 314.599 394.479 314.746 394.498 314.787L394.503 314.798L394.506 314.804C407.646 340.76 432.033 355.377 457.945 355.377C460.582 355.377 463.568 355.223 466.223 354.918L466.78 354.854V355.414V506.639V506.779L466.708 506.898C448.525 536.965 414.705 590.664 414.357 591.215C412.707 593.834 412.611 597.143 414.107 599.853L413.669 600.094L414.107 599.853C415.602 602.562 418.453 604.245 421.548 604.245L454.303 604.245C457.176 604.245 459.854 602.795 461.424 600.389L515.366 517.676L515.539 517.412L515.851 517.454L518.203 517.768L518.683 517.832L518.635 518.314C517.739 527.18 518.419 540.752 526.341 556.197L526.632 556.764L526.012 556.912C517.535 558.927 508.528 562.671 501.648 568.892C494.782 575.1 490.019 583.785 490.019 595.746C490.019 600.441 493.824 604.246 498.519 604.246V604.746C498.519 604.246 498.52 604.246 498.521 604.246H498.527H498.537H498.55H498.568H498.589H498.614H498.643H498.676H498.712H498.753H498.797H498.844H498.896H498.951H499.01H499.072H499.138H499.208H499.282H499.359H499.439H499.523H499.611H499.703H499.797H499.896H499.998H500.103H500.212H500.324H500.44H500.559H500.681H500.807H500.937H501.069H501.205H501.345H501.487H501.633H501.783H501.935H502.091H502.25H502.412H502.578H502.747H502.919H503.094H503.272H503.453H503.638H503.825H504.016H504.209H504.406H504.606H504.809H505.015H505.224H505.435H505.65H505.868H506.089H506.312H506.539H506.768H507.001H507.236H507.474H507.715H507.958H508.205H508.454H508.706H508.961H509.218H509.478H509.741H510.007H510.275H510.546H510.82H511.096H511.375H511.657H511.941H512.227H512.516H512.808H513.102H513.399H513.698H514H514.304H514.611H514.92H515.232H515.546H515.862H516.181H516.502H516.825H517.151H517.479H517.809H518.142H518.476H518.814H519.153H519.494H519.838H520.184H520.532H520.883H521.235H521.59H521.946H522.305H522.666H523.029H523.394H523.761H524.13H524.501H524.874H525.249H525.626H526.005H526.386H526.769H527.153H527.54H527.928H528.319H528.711H529.105H529.501H529.898H530.297H530.699H531.101H531.506H531.912H532.32H532.73H533.141H533.554H533.969H534.385H534.803H535.223H535.644H536.066H536.491H536.916H537.344H537.772H538.203H538.634H539.067H539.502H539.938H540.376H540.814H541.255H541.696H542.139H542.584H543.029H543.476H543.924H544.374H544.824H545.276H545.73H546.184H546.64H547.097H547.555H548.014H548.474H548.935H549.398H549.861H550.326H550.792H551.259H551.726H552.195H552.665H553.136H553.608H554.08H554.554H555.029H555.504H555.981H556.458H556.936H557.415H557.895H558.376H558.857H559.339H559.822H560.306H560.79H561.276H561.762H562.248H562.736H563.224H563.712H564.202H564.691H565.182H565.673H566.165H566.657H567.15H567.643H568.137H568.631H569.126H569.621H570.117H570.613H571.109H571.606H572.104H572.602H573.1H573.598H574.097H574.596H575.095H575.595H576.095H576.595H577.096H577.596H578.097H578.598H579.099H579.601H580.102H580.604H581.106H581.608H582.11H582.612H583.114H583.616H584.118H584.62H585.122H585.625H586.127H586.629H587.131H587.633H588.134H588.636H589.138H589.639H590.14H590.641H591.142H591.643H592.144H592.644H593.144H593.644H594.143H594.642H595.141H595.64H596.138H596.636H597.133H597.63H598.127H598.623H599.119H599.614H600.109H600.604H601.098H601.591H602.084H602.576H603.068H603.559H604.05H604.54H605.029H605.518H606.006H606.494H606.981H607.467H607.952H608.437H608.921H609.404H609.887H610.368H610.849H611.329H611.808H612.287H612.764H613.241H613.717H614.192H614.665H615.138H615.611H616.082H616.552H617.021H617.489H617.956H618.422H618.887H619.351H619.814H620.275H620.736H621.195H621.654H622.111H622.567H623.021H623.475H623.927H624.378H624.828H625.277H625.724H626.17H626.614H627.058H627.5H627.94H628.379H628.817H629.254H629.689H630.122H630.554H630.985H631.414H631.842H632.268H632.692H633.116H633.537H633.957H634.375H634.792H635.207H635.621H636.032H636.442H636.851H637.258H637.663H638.066H638.468H638.867H639.265H639.662H640.056H640.449H640.84H641.228H641.615H642.001H642.384H642.765H643.145H643.522H643.898H644.271H644.643H645.013H645.38H645.746H646.109H646.471H646.83H647.187H647.542H647.895H648.246H648.595H648.941H649.286H649.628H649.968H650.306H650.641H650.974H651.305H651.634H651.96H652.284H652.606H652.925H653.242H653.556H653.869H654.178H654.486H654.791H655.093H655.393H655.69H655.985H656.278H656.567H656.855H657.139H657.422H657.701H657.978H658.252H658.524H658.793H659.059H659.323H659.584H659.842H660.098H660.351H660.6H660.848H661.092H661.334H661.572H661.808H662.041H662.272H662.499H662.723H662.945H663.163H663.379H663.592H663.801H664.008H664.211H664.412H664.61H664.804H664.996H665.184H665.369H665.551H665.73H665.906H666.079H666.249H666.415H666.578H666.738H666.895H667.048H667.198H667.345H667.489H667.629H667.766H667.899H668.03H668.156H668.28H668.4H668.516H668.63H668.739H668.846H668.948H669.048H669.143H669.236H669.324H669.41H669.491H669.569H669.643H669.714H669.781H669.845H669.905H669.961H670.013H670.062H670.107H670.148H670.186H670.219H670.249H670.275H670.298H670.316H670.331H670.341H670.348C712.364 604.246 750.957 580.026 769.183 541.973L769.634 542.189L769.183 541.973C771.212 537.74 769.424 532.664 765.19 530.635C760.956 528.609 755.88 530.396 753.852 534.629C738.13 567.451 704.462 588.106 668.13 587.22L668.128 587.22C668.061 587.218 667.994 587.217 667.926 587.217H660.287H658.979L659.954 586.345C669.595 577.717 679.035 564.548 684.011 544.532C692.534 510.25 686.465 473.883 666.906 442.129C645.547 407.454 610.771 381.968 570.944 371.626L570.689 371.56L570.599 371.313L515.063 218.103C513.807 214.638 510.46 212.39 506.776 212.504C503.093 212.633 499.911 215.121 498.899 218.664L492.462 241.195L492.215 242.06L491.611 241.393L481.119 229.821L481.489 229.485L481.119 229.821C478.849 227.317 475.312 226.397 472.108 227.475C468.905 228.554 466.646 231.428 466.353 234.795L464.184 259.787L464.154 260.141L463.809 260.228C451.337 263.397 441.643 273.611 439.231 286.364Z" fill="#FE6C53" stroke="#FF9D8C"/>
<path d="M534.288 594.604L533.41 595.462H534.638H540.292C552.295 595.462 561.309 592.546 567.318 586.536C573.327 580.527 576.243 571.513 576.243 559.511C576.243 544.773 571.233 535.404 565.984 525.589L565.966 525.555C561.029 516.324 555.985 506.889 555.985 493.674C555.985 467.63 574.039 453.659 590.936 453.659C593.459 453.659 595.5 455.7 595.5 458.223C595.5 460.747 593.459 462.788 590.936 462.788C585.726 462.788 579.27 464.855 574.114 469.758C568.946 474.672 565.114 482.405 565.114 493.674C565.114 504.614 569.263 512.367 574 521.22L574.016 521.25C579.364 531.243 585.372 542.493 585.372 559.511C585.372 574.12 581.352 585.371 573.752 592.971C566.153 600.571 554.902 604.59 540.292 604.59H418.747C416.224 604.59 414.183 602.549 414.182 600.026V589.897C414.182 581.795 420.773 575.204 428.875 575.204H433.94H434.44V574.704V530.341V530.222L434.386 530.116C433.209 527.775 430.685 522.56 428.457 516.604C426.224 510.634 424.311 503.979 424.311 498.738C424.311 490.787 425.371 485.066 426.807 480.699C428.244 476.332 430.063 473.299 431.619 470.706C433.472 467.622 434.44 465.917 434.44 463.287V460.687C434.445 456.397 434.448 452.385 434.326 449.267C434.265 447.708 434.173 446.361 434.032 445.308C433.962 444.782 433.879 444.319 433.778 443.936C433.679 443.562 433.554 443.224 433.383 442.974L433.234 442.758H432.981C432.975 442.757 432.964 442.755 432.948 442.753C432.936 442.751 432.923 442.749 432.907 442.747C432.87 442.742 432.822 442.734 432.769 442.727C432.611 442.705 432.38 442.675 432.058 442.646C431.413 442.588 430.406 442.53 428.876 442.53C422.089 442.53 413.314 440.826 406.255 436.851C399.206 432.884 393.925 426.695 393.925 417.708C393.925 414.562 395.396 411.915 397.589 409.549C399.789 407.176 402.671 405.131 405.425 403.181C405.587 403.067 405.748 402.953 405.909 402.84C407.615 401.637 409.282 400.462 410.455 399.289L410.455 399.288C411.54 398.203 412.777 396.352 414.04 394.463L414.098 394.376L414.099 394.375C415.861 391.725 417.801 388.815 420.197 386.561C422.584 384.317 425.388 382.758 428.876 382.758C429.257 382.758 429.6 382.545 429.877 382.303C430.168 382.048 430.461 381.692 430.749 381.267C431.326 380.414 431.926 379.212 432.469 377.78C433.556 374.913 434.44 371.055 434.44 367.065C434.44 364.541 436.482 362.5 439.005 362.5C446.536 362.5 451.976 366.244 455.816 370.789C459.664 375.341 461.879 380.671 462.933 383.745L463.002 383.944L463.191 384.034C468.266 386.454 479.02 393.28 479.02 407.579V458.223C479.02 459.975 480.055 462.127 481.633 464.431C483.227 466.758 485.439 469.331 487.923 471.946C492.893 477.176 499.002 482.625 503.559 486.688C507.251 489.985 510.622 493.001 513.133 495.511C514.815 497.194 516.758 498.901 518.809 500.705L519.002 500.875L519.002 500.875C529.976 510.514 544.857 523.597 544.857 549.382V569.64C544.857 579.421 540.791 588.251 534.288 594.604Z" fill="#E14881" stroke="#EA8181"/>
<path d="M235.712 594.604L236.59 595.462H235.363H229.708C217.705 595.462 208.691 592.546 202.682 586.536C196.673 580.527 193.757 571.513 193.757 559.511C193.757 544.773 198.767 535.404 204.016 525.589L204.034 525.555C208.971 516.324 214.015 506.889 214.015 493.674C214.015 467.63 195.961 453.659 179.064 453.659C176.541 453.659 174.5 455.7 174.5 458.223C174.5 460.747 176.541 462.788 179.064 462.788C184.275 462.788 190.73 464.855 195.887 469.758C201.054 474.672 204.886 482.405 204.886 493.674C204.886 504.614 200.737 512.367 196 521.22L195.984 521.25C190.637 531.243 184.629 542.493 184.629 559.511C184.629 574.12 188.648 585.371 196.248 592.971C203.847 600.571 215.099 604.59 229.708 604.59H351.253C353.776 604.59 355.818 602.549 355.818 600.026V589.897C355.818 581.795 349.227 575.204 341.125 575.204H336.06H335.56V574.704V530.341V530.222L335.614 530.116C336.792 527.775 339.315 522.56 341.543 516.604C343.776 510.634 345.689 503.979 345.689 498.738C345.689 490.787 344.629 485.066 343.193 480.699C341.756 476.332 339.937 473.299 338.381 470.706C336.528 467.622 335.56 465.917 335.56 463.287V460.687C335.555 456.397 335.552 452.385 335.674 449.267C335.735 447.708 335.827 446.361 335.968 445.308C336.038 444.782 336.122 444.319 336.223 443.936C336.321 443.562 336.446 443.224 336.617 442.974L336.766 442.758H337.019C337.026 442.757 337.036 442.755 337.052 442.753C337.064 442.751 337.078 442.749 337.093 442.747C337.13 442.742 337.178 442.734 337.231 442.727C337.389 442.705 337.62 442.675 337.942 442.646C338.587 442.588 339.594 442.53 341.124 442.53C347.912 442.53 356.686 440.826 363.746 436.851C370.794 432.884 376.075 426.695 376.075 417.708C376.075 414.562 374.604 411.915 372.411 409.549C370.212 407.176 367.329 405.131 364.575 403.181C364.413 403.067 364.252 402.953 364.091 402.84C362.385 401.637 360.718 400.462 359.545 399.289L359.545 399.288C358.46 398.203 357.223 396.352 355.96 394.463L355.902 394.376L355.901 394.375C354.14 391.725 352.199 388.815 349.803 386.561C347.416 384.317 344.612 382.758 341.124 382.758C340.743 382.758 340.4 382.545 340.123 382.303C339.832 382.048 339.539 381.692 339.251 381.267C338.674 380.414 338.074 379.212 337.531 377.78C336.444 374.913 335.56 371.055 335.56 367.065C335.56 364.541 333.519 362.5 330.995 362.5C323.464 362.5 318.024 366.244 314.184 370.789C310.336 375.341 308.121 380.671 307.067 383.745L306.999 383.944L306.809 384.034C301.735 386.454 290.98 393.28 290.98 407.579V458.223C290.98 459.975 289.945 462.127 288.367 464.431C286.773 466.758 284.561 469.331 282.077 471.946C277.107 477.176 270.998 482.625 266.441 486.688C262.749 489.985 259.378 493.001 256.867 495.511C255.185 497.194 253.243 498.901 251.191 500.705L250.998 500.875L250.998 500.875C240.024 510.514 225.143 523.597 225.143 549.382V569.64C225.143 579.421 229.209 588.251 235.712 594.604Z" fill="#E14881" stroke="#EA8181"/>
<g filter="url(#filter0_i)">
<path d="M192.856 616.76C199 616.76 203.896 618.52 207.544 622.04C211.192 625.496 213.016 630.264 213.016 636.344C213.016 642.424 210.712 647.64 206.104 651.992C201.496 656.28 195.864 658.424 189.208 658.424H183.736L184.888 683H172.024L173.176 659.672L172.024 616.76H192.856ZM189.4 626.456H184.696L184.024 649.112H190.552C193.752 649.112 196.216 648.056 197.944 645.944C199.736 643.832 200.632 640.824 200.632 636.92C200.632 629.944 196.888 626.456 189.4 626.456ZM236.036 673.208C237.892 673.208 239.844 672.728 241.892 671.768C243.94 670.808 245.54 669.848 246.692 668.888L248.42 667.448L252.836 672.824C252.196 673.912 251.204 675.16 249.86 676.568C248.516 677.976 247.14 679.192 245.732 680.216C244.388 681.176 242.564 682.072 240.26 682.904C238.02 683.672 235.684 684.056 233.252 684.056C228.068 684.056 223.844 682.104 220.58 678.2C217.316 674.232 215.684 669.144 215.684 662.936C215.684 655.128 217.956 648.28 222.5 642.392C227.044 636.504 232.356 633.56 238.436 633.56C243.108 633.56 246.724 634.872 249.284 637.496C251.908 640.12 253.22 643.8 253.22 648.536C253.22 651.352 252.74 654.552 251.78 658.136L249.86 660.152L225.859 662.36C226.948 669.592 230.34 673.208 236.036 673.208ZM236.036 643.448C233.22 643.448 230.852 644.6 228.932 646.904C227.012 649.144 225.892 652.024 225.572 655.544L241.892 653.528C242.084 652.056 242.18 650.84 242.18 649.88C242.18 645.592 240.132 643.448 236.036 643.448ZM265.343 636.536V626.072L278.303 623.576L277.055 636.536H288.671L287.615 644.408H276.671L276.191 664.472C276.191 667.48 276.479 669.496 277.055 670.52C277.631 671.48 278.687 671.96 280.223 671.96C281.759 671.96 283.807 671.608 286.367 670.904L286.943 677.72C282.719 681.24 279.007 683 275.807 683C272.607 683 269.983 681.848 267.935 679.544C265.887 677.176 264.863 674.104 264.863 670.328L265.439 659.576L265.343 644.408H258.719L259.775 636.536H265.343ZM333.481 616.76C339.625 616.76 344.521 618.52 348.169 622.04C351.817 625.496 353.641 630.264 353.641 636.344C353.641 642.424 351.337 647.64 346.729 651.992C342.121 656.28 336.489 658.424 329.833 658.424H324.361L325.513 683H312.649L313.801 659.672L312.649 616.76H333.481ZM330.025 626.456H325.321L324.649 649.112H331.177C334.377 649.112 336.841 648.056 338.569 645.944C340.361 643.832 341.257 640.824 341.257 636.92C341.257 629.944 337.513 626.456 330.025 626.456ZM376.661 673.208C378.517 673.208 380.469 672.728 382.517 671.768C384.565 670.808 386.165 669.848 387.317 668.888L389.045 667.448L393.461 672.824C392.821 673.912 391.829 675.16 390.485 676.568C389.141 677.976 387.765 679.192 386.357 680.216C385.013 681.176 383.189 682.072 380.885 682.904C378.645 683.672 376.309 684.056 373.877 684.056C368.693 684.056 364.469 682.104 361.205 678.2C357.941 674.232 356.309 669.144 356.309 662.936C356.309 655.128 358.581 648.28 363.125 642.392C367.669 636.504 372.981 633.56 379.061 633.56C383.733 633.56 387.349 634.872 389.909 637.496C392.533 640.12 393.845 643.8 393.845 648.536C393.845 651.352 393.365 654.552 392.405 658.136L390.485 660.152L366.484 662.36C367.573 669.592 370.965 673.208 376.661 673.208ZM376.661 643.448C373.845 643.448 371.477 644.6 369.557 646.904C367.637 649.144 366.517 652.024 366.197 655.544L382.517 653.528C382.709 652.056 382.805 650.84 382.805 649.88C382.805 645.592 380.757 643.448 376.661 643.448ZM401.168 636.632L412.784 634.136C413.36 639.064 413.744 643.736 413.936 648.152C419.76 639.128 425.232 634.616 430.352 634.616L429.296 649.592C425.584 649.592 422.64 649.944 420.464 650.648C418.352 651.288 416.176 652.6 413.936 654.584V658.04L414.992 680.6L402.128 683L403.28 659.672C403.024 651.096 402.32 643.416 401.168 636.632ZM462.075 620.504C459.707 619.928 457.563 619.64 455.643 619.64C453.723 619.64 452.315 620.216 451.419 621.368C450.587 622.52 450.171 624.536 450.171 627.416L450.075 636.536H460.443L459.387 644.408H450.075L449.979 658.04L451.035 680.6L438.075 683L439.227 659.672L438.843 644.408H432.507L433.563 636.536H438.651L438.555 629.24C438.555 623.544 440.315 618.712 443.835 614.744C447.355 610.712 451.643 608.696 456.699 608.696C459.387 608.696 462.171 608.984 465.051 609.56L462.075 620.504ZM482.786 673.208C484.642 673.208 486.594 672.728 488.642 671.768C490.69 670.808 492.29 669.848 493.442 668.888L495.17 667.448L499.586 672.824C498.946 673.912 497.954 675.16 496.61 676.568C495.266 677.976 493.89 679.192 492.482 680.216C491.138 681.176 489.314 682.072 487.01 682.904C484.77 683.672 482.434 684.056 480.002 684.056C474.818 684.056 470.594 682.104 467.33 678.2C464.066 674.232 462.434 669.144 462.434 662.936C462.434 655.128 464.706 648.28 469.25 642.392C473.794 636.504 479.106 633.56 485.186 633.56C489.858 633.56 493.474 634.872 496.034 637.496C498.658 640.12 499.97 643.8 499.97 648.536C499.97 651.352 499.49 654.552 498.53 658.136L496.61 660.152L472.609 662.36C473.698 669.592 477.09 673.208 482.786 673.208ZM482.786 643.448C479.97 643.448 477.602 644.6 475.682 646.904C473.762 649.144 472.642 652.024 472.322 655.544L488.642 653.528C488.834 652.056 488.93 650.84 488.93 649.88C488.93 645.592 486.882 643.448 482.786 643.448ZM521.213 634.136L520.061 658.04L521.117 680.6L508.253 683L509.405 659.672L508.349 636.536L521.213 634.136ZM507.677 620.12C507.677 617.944 508.509 616.024 510.173 614.36C511.837 612.632 513.757 611.768 515.933 611.768C518.109 611.768 519.773 612.376 520.925 613.592C522.077 614.744 522.653 616.504 522.653 618.872C522.653 621.24 521.821 623.288 520.157 625.016C518.557 626.68 516.669 627.512 514.493 627.512C512.381 627.512 510.717 626.808 509.501 625.4C508.285 623.992 507.677 622.232 507.677 620.12ZM535.531 636.536V626.072L548.491 623.576L547.243 636.536H558.859L557.803 644.408H546.859L546.379 664.472C546.379 667.48 546.667 669.496 547.243 670.52C547.819 671.48 548.875 671.96 550.411 671.96C551.947 671.96 553.995 671.608 556.555 670.904L557.131 677.72C552.907 681.24 549.195 683 545.995 683C542.795 683 540.171 681.848 538.123 679.544C536.075 677.176 535.051 674.104 535.051 670.328L535.627 659.576L535.531 644.408H528.907L529.963 636.536H535.531ZM563.032 662.936C563.032 654.744 565.24 647.8 569.656 642.104C574.072 636.408 579.224 633.56 585.112 633.56C591.064 633.56 595.672 635.48 598.936 639.32C602.264 643.16 603.928 648.248 603.928 654.584C603.928 663.032 601.784 670.072 597.496 675.704C593.272 681.272 587.928 684.056 581.464 684.056C576.152 684.056 571.736 682.072 568.216 678.104C564.76 674.072 563.032 669.016 563.032 662.936ZM593.176 659.576C593.176 650.296 590.008 645.656 583.672 645.656C577.08 645.656 573.784 650.008 573.784 658.712C573.784 663.256 574.712 666.808 576.568 669.368C578.424 671.928 580.856 673.208 583.864 673.208C586.936 673.208 589.24 672.056 590.776 669.752C592.376 667.384 593.176 663.992 593.176 659.576Z" fill="#E14881"/>
</g>
<defs>
<filter id="filter0_i" x="172.024" y="608.696" width="431.904" height="79.36" filterUnits="userSpaceOnUse" color-interpolation-filters="sRGB">
<feFlood flood-opacity="0" result="BackgroundImageFix"/>
<feBlend mode="normal" in="SourceGraphic" in2="BackgroundImageFix" result="shape"/>
<feColorMatrix in="SourceAlpha" type="matrix" values="0 0 0 0 0 0 0 0 0 0 0 0 0 0 0 0 0 0 127 0" result="hardAlpha"/>
<feOffset dy="4"/>
<feGaussianBlur stdDeviation="2"/>
<feComposite in2="hardAlpha" operator="arithmetic" k2="-1" k3="1"/>
<feColorMatrix type="matrix" values="0 0 0 0 0 0 0 0 0 0 0 0 0 0 0 0 0 0 0.25 0"/>
<feBlend mode="normal" in2="shape" result="effect1_innerShadow"/>
</filter>
</defs>
</svg>
