<svg xmlns="http://www.w3.org/2000/svg" width="226.676" height="170" viewBox="0 0 226.676 170">
  <g id="showpass" transform="translate(0 -64.008)">
    <g id="Grupo_99" data-name="Grupo 99" transform="translate(84.889 120.544)">
      <g id="Grupo_98" data-name="Grupo 98">
        <path id="Caminho_2466" data-name="Caminho 2466" d="M247.913,193.937a4.77,4.77,0,1,0-6.746,6.746,28.621,28.621,0,1,1-40.476,40.476,4.77,4.77,0,0,0-6.746,6.746,38.161,38.161,0,1,0,53.968-53.968Z" transform="translate(-192.55 -192.542)" fill="#ff2d66"/>
      </g>
    </g>
    <g id="Grupo_101" data-name="Grupo 101" transform="translate(75.349 111.033)">
      <g id="Grupo_100" data-name="Grupo 100">
        <path id="Caminho_2467" data-name="Caminho 2467" d="M215.485,171.317a37.786,37.786,0,0,0-44.817,37.508,37.352,37.352,0,0,0,.668,6.65,4.777,4.777,0,0,0,4.685,3.941,4.229,4.229,0,0,0,.84-.076,4.776,4.776,0,0,0,3.864-5.525,27.663,27.663,0,0,1-.515-4.99,28.281,28.281,0,0,1,33.615-28.119,4.767,4.767,0,1,0,1.66-9.389Z" transform="translate(-170.668 -170.659)" fill="#ff2d66"/>
      </g>
    </g>
    <g id="Grupo_103" data-name="Grupo 103" transform="translate(57.357 94.671)">
      <g id="Grupo_102" data-name="Grupo 102">
        <path id="Caminho_2468" data-name="Caminho 2468" d="M301.619,186.841c-1.078-1.279-26.888-31.4-62.488-49.845a4.773,4.773,0,0,0-4.38,8.483c27.423,14.2,49.33,36.354,56.82,44.445-11.373,12.318-56.133,57.25-103.317,57.25-16.011,0-32.146-3.864-47.975-11.5a4.767,4.767,0,0,0-4.141,8.587c17.127,8.273,34.665,12.452,52.117,12.452,58.786,0,111.17-61.1,113.374-63.71A4.767,4.767,0,0,0,301.619,186.841Z" transform="translate(-133.435 -136.461)" fill="#ff2d66"/>
      </g>
    </g>
    <g id="Grupo_105" data-name="Grupo 105" transform="translate(0 83.084)">
      <g id="Grupo_104" data-name="Grupo 104" transform="translate(0)">
        <path id="Caminho_2469" data-name="Caminho 2469" d="M145.806,112.155a98.515,98.515,0,0,0-31.306-5.5c-58.786,0-111.17,61.1-113.374,63.71a4.771,4.771,0,0,0-.267,5.811,177.124,177.124,0,0,0,43.767,41.5,4.737,4.737,0,0,0,6.6-1.345,4.757,4.757,0,0,0-1.336-6.6,174.478,174.478,0,0,1-38.959-36.02C21.917,161.781,66.973,116.2,114.5,116.2a89.306,89.306,0,0,1,28.262,4.99,4.706,4.706,0,0,0,6.04-3A4.762,4.762,0,0,0,145.806,112.155Z" transform="translate(0 -106.659)" fill="#ff2d66"/>
      </g>
    </g>
    <g id="Grupo_107" data-name="Grupo 107" transform="translate(28.623 64.008)">
      <g id="Grupo_106" data-name="Grupo 106">
        <path id="Caminho_2470" data-name="Caminho 2470" d="M232.04,65.389a4.7,4.7,0,0,0-6.655,0L65.373,225.951a4.718,4.718,0,0,0,3.332,8.057,4.681,4.681,0,0,0,3.323-1.379L232.04,72.067A4.737,4.737,0,0,0,232.04,65.389Z" transform="translate(-63.996 -64.008)" fill="#ff2d66"/>
      </g>
    </g>
  </g>
</svg>
