<svg xmlns="http://www.w3.org/2000/svg" width="179.923" height="207.333" viewBox="0 0 179.923 207.333">
  <g id="user" transform="translate(-41.895 -21)">
    <path id="Caminho_2471" data-name="Caminho 2471" d="M157.639,100.719c29.327,0,53.1-22.546,53.1-50.359S202.936,0,157.639,0s-53.1,22.546-53.1,50.36S128.311,100.719,157.639,100.719Z" transform="translate(-25.782 21)" fill="#ff2d66"/>
    <path id="Caminho_2472" data-name="Caminho 2472" d="M41.9,301.243c-.007-1.7-.014-.478,0,0Z" transform="translate(0 -101.24)" fill="#ff2d66"/>
    <path id="Caminho_2473" data-name="Caminho 2473" d="M308.085,303.027c.022-.464.008-3.221,0,0Z" transform="translate(-86.279 -101.699)" fill="#ff2d66"/>
    <path id="Caminho_2474" data-name="Caminho 2474" d="M221.71,248.735c-.882-48.45-8.15-62.256-63.771-71,0,0-7.829,8.685-26.078,8.685s-26.08-8.685-26.08-8.685c-55.013,8.644-62.724,22.245-63.738,69.421-.083,3.852-.122,4.055-.137,3.608,0,.838.007,2.388.007,5.09,0,0,13.242,23.24,89.946,23.24s89.946-23.24,89.946-23.24c0-1.736,0-2.944,0-3.765A27.176,27.176,0,0,1,221.71,248.735Z" transform="translate(-0.005 -50.766)" fill="#ff2d66"/>
  </g>
</svg>
